<?xml version="1.0" standalone="no"?>
<!DOCTYPE svg>
<svg version="1.0" xmlns="http://www.w3.org/2000/svg" width="256.000000pt" height="256.000000pt" viewBox="0 0 256.000000 256.000000" preserveAspectRatio="xMidYMid meet">
  <metadata>
    Created by potrace 1.14, written by Peter Selinger 2001-2017
  </metadata>
  <g transform="translate(0.000000,256.000000) scale(0.100000,-0.100000)" fill="#000000" stroke="none">
    <path d="M1558 2532 l-96 -3 -7 -67 c-3 -37 -8 -89 -10 -116 -3 -27 -7 -65 -9
      -85 -3 -20 -8 -65 -11 -101 -3 -36 -8 -81 -10 -100 -2 -19 -7 -62 -10 -95 -3
      -33 -7 -76 -9 -95 -3 -19 -8 -66 -11 -103 -4 -37 -8 -76 -10 -86 -2 -9 -6 -57
      -10 -105 -3 -48 -8 -95 -10 -105 -2 -9 -6 -49 -10 -87 -3 -39 -8 -83 -10 -99
      -2 -17 -6 -64 -10 -105 -4 -41 -9 -86 -10 -100 -1 -14 -6 -56 -9 -95 -12 -116
      -23 -184 -26 -150 -1 17 -3 38 -5 48 -3 15 -13 119 -20 202 -1 17 -5 55 -9 85
      -3 30 -8 82 -11 115 -3 33 -7 74 -10 90 -2 17 -7 63 -10 104 -4 41 -8 82 -10
      92 -2 10 -6 50 -10 91 -3 40 -8 89 -10 108 -5 42 -13 115 -20 188 -3 28 -7 76
      -10 105 -3 28 -7 72 -10 97 -6 58 -12 117 -21 205 -3 39 -8 77 -9 85 -2 8 -4
      30 -4 48 l-1 32 -170 0 -171 0 6 -52 c4 -29 9 -59 11 -67 3 -8 -8 -2 -23 14
      -41 41 -93 71 -153 89 -43 13 -107 16 -330 16 l-276 0 1 -1257 c1 -692 3
      -1260 4 -1263 3 -12 546 -3 591 9 132 37 226 136 274 291 13 41 26 100 30 130
      3 30 6 273 6 539 0 266 2 482 4 480 2 -2 6 -29 9 -59 4 -30 11 -89 17 -130 11
      -77 14 -100 25 -185 4 -27 8 -61 10 -75 2 -14 7 -47 11 -75 3 -27 8 -59 10
      -70 2 -11 13 -92 25 -180 11 -88 22 -173 24 -190 6 -46 36 -257 40 -285 7 -49
      15 -106 21 -150 3 -25 8 -47 10 -50 7 -7 335 -7 339 0 2 4 7 29 10 56 4 27 8
      60 10 74 2 14 7 48 10 75 7 56 13 98 20 135 2 14 7 48 10 75 3 28 8 61 10 75
      2 14 9 63 15 110 6 47 13 100 15 118 12 81 15 104 30 217 9 66 18 130 20 141
      2 12 7 48 11 80 4 33 8 64 9 69 1 6 3 25 3 43 1 17 5 32 10 32 4 0 7 -294 6
      -653 l0 -652 280 0 c299 1 321 4 406 53 91 52 160 153 197 292 17 60 18 134
      18 920 0 782 -1 860 -17 918 -48 173 -137 280 -270 325 -36 12 -95 16 -250 17
      -112 1 -237 3 -278 3 -41 1 -118 1 -172 -1z m-1036 -434 c14 -9 34 -34 44 -55
      18 -36 19 -74 22 -742 3 -760 1 -789 -47 -843 -24 -27 -36 -31 -97 -37 -39 -4
      -82 -4 -95 -1 l-24 6 -1 847 0 847 86 -3 c60 -2 95 -8 112 -19z m1625 7 c20
      -9 40 -29 55 -57 l23 -43 3 -704 c3 -762 2 -789 -48 -844 -27 -31 -31 -32
      -123 -35 l-94 -4 0 851 1 851 75 -1 c42 -1 90 -7 108 -14z"/>
  </g>
</svg>
